<svg id="visual" viewBox="0 0 970 900" width="970" height="900" xmlns="http://www.w3.org/2000/svg" xmlns:xlink="http://www.w3.org/1999/xlink" version="1.1"><rect x="0" y="0" width="970" height="900" fill="#000814"></rect><path d="M0 575L44 575L44 538L88 538L88 584L132 584L132 581L176 581L176 528L220 528L220 502L265 502L265 605L309 605L309 606L353 606L353 402L397 402L397 554L441 554L441 465L485 465L485 493L529 493L529 393L573 393L573 568L617 568L617 476L661 476L661 436L705 436L705 576L750 576L750 519L794 519L794 597L838 597L838 586L882 586L882 481L926 481L926 535L970 535L970 476L970 901L970 901L926 901L926 901L882 901L882 901L838 901L838 901L794 901L794 901L750 901L750 901L705 901L705 901L661 901L661 901L617 901L617 901L573 901L573 901L529 901L529 901L485 901L485 901L441 901L441 901L397 901L397 901L353 901L353 901L309 901L309 901L265 901L265 901L220 901L220 901L176 901L176 901L132 901L132 901L88 901L88 901L44 901L44 901L0 901Z" fill="#003566"></path><path d="M0 670L44 670L44 595L88 595L88 681L132 681L132 590L176 590L176 572L220 572L220 646L265 646L265 543L309 543L309 668L353 668L353 718L397 718L397 666L441 666L441 555L485 555L485 653L529 653L529 614L573 614L573 579L617 579L617 619L661 619L661 718L705 718L705 672L750 672L750 613L794 613L794 704L838 704L838 654L882 654L882 721L926 721L926 651L970 651L970 667L970 901L970 901L926 901L926 901L882 901L882 901L838 901L838 901L794 901L794 901L750 901L750 901L705 901L705 901L661 901L661 901L617 901L617 901L573 901L573 901L529 901L529 901L485 901L485 901L441 901L441 901L397 901L397 901L353 901L353 901L309 901L309 901L265 901L265 901L220 901L220 901L176 901L176 901L132 901L132 901L88 901L88 901L44 901L44 901L0 901Z" fill="#002951"></path><path d="M0 816L44 816L44 684L88 684L88 792L132 792L132 703L176 703L176 763L220 763L220 687L265 687L265 791L309 791L309 739L353 739L353 784L397 784L397 728L441 728L441 784L485 784L485 775L529 775L529 778L573 778L573 804L617 804L617 680L661 680L661 731L705 731L705 670L750 670L750 672L794 672L794 782L838 782L838 795L882 795L882 676L926 676L926 734L970 734L970 806L970 901L970 901L926 901L926 901L882 901L882 901L838 901L838 901L794 901L794 901L750 901L750 901L705 901L705 901L661 901L661 901L617 901L617 901L573 901L573 901L529 901L529 901L485 901L485 901L441 901L441 901L397 901L397 901L353 901L353 901L309 901L309 901L265 901L265 901L220 901L220 901L176 901L176 901L132 901L132 901L88 901L88 901L44 901L44 901L0 901Z" fill="#001d3d"></path></svg>